<?xml version="1.0" encoding="utf-8" ?>
<svg baseProfile="full" height="57.5mm" version="1.1" viewBox="0,0,306.20000000000005,57.5" width="306.20000000000005mm" xmlns="http://www.w3.org/2000/svg" xmlns:ev="http://www.w3.org/2001/xml-events" xmlns:xlink="http://www.w3.org/1999/xlink"><defs /><rect fill="#FFFFFF" height="57.5" width="306.20000000000005" x="0" y="0" /><text fill="#000000" style="font-size:6px; font-family:Arial; font-weight:bold;" x="10" y="10">qi jin zi</text><text fill="#000000" style="font-size:3px; font-family:Arial;" x="10" y="14.4">2024: 453 hours</text><text fill="#000000" style="font-size:2.5px; font-family:Arial" x="10" y="18.3">Jan</text><rect fill="#67bf6c" height="4" rx="1" ry="1" width="4" x="10" y="19.7"><title>2024-01-01 42.28 mins</title></rect><rect fill="#549F57" height="4" rx="1" ry="1" width="4" x="10" y="25.1"><title>2024-01-02 191.38 mins</title></rect><rect fill="#64bc69" height="4" rx="1" ry="1" width="4" x="10" y="30.5"><title>2024-01-03 119.33 mins</title></rect><rect fill="#ace7ae" height="4" rx="1" ry="1" width="4" x="10" y="35.9"><title>2024-01-04 0.85 mins</title></rect><rect fill="#ace7ae" height="4" rx="1" ry="1" width="4" x="10" y="41.300000000000004"><title>2024-01-05 1.17 mins</title></rect><rect fill="#ace7ae" height="4" rx="1" ry="1" width="4" x="10" y="46.699999999999996"><title>2024-01-06 1.12 mins</title></rect><rect fill="#abe7ad" height="4" rx="1" ry="1" width="4" x="10" y="52.1"><title>2024-01-07 6.7 mins</title></rect><rect fill="#67bf6c" height="4" rx="1" ry="1" width="4" x="15.4" y="19.7"><title>2024-01-08 38.5 mins</title></rect><rect fill="#66be6b" height="4" rx="1" ry="1" width="4" x="15.4" y="25.1"><title>2024-01-09 67.68 mins</title></rect><rect fill="#EBEDF0" height="4" rx="1" ry="1" width="4" x="15.4" y="30.5"><title>2024-01-10</title></rect><rect fill="#ace7ae" height="4" rx="1" ry="1" width="4" x="15.4" y="35.9"><title>2024-01-11 0.5 mins</title></rect><rect fill="#ace7ae" height="4" rx="1" ry="1" width="4" x="15.4" y="41.300000000000004"><title>2024-01-12 0.75 mins</title></rect><rect fill="#EBEDF0" height="4" rx="1" ry="1" width="4" x="15.4" y="46.699999999999996"><title>2024-01-13</title></rect><rect fill="#68c06d" height="4" rx="1" ry="1" width="4" x="15.4" y="52.1"><title>2024-01-14 26.77 mins</title></rect><rect fill="#abe6ad" height="4" rx="1" ry="1" width="4" x="20.8" y="19.7"><title>2024-01-15 7.08 mins</title></rect><rect fill="#68c06d" height="4" rx="1" ry="1" width="4" x="20.8" y="25.1"><title>2024-01-16 26.77 mins</title></rect><rect fill="#68c06d" height="4" rx="1" ry="1" width="4" x="20.8" y="30.5"><title>2024-01-17 22.32 mins</title></rect><rect fill="#ace7ae" height="4" rx="1" ry="1" width="4" x="20.8" y="35.9"><title>2024-01-18 1.6 mins</title></rect><rect fill="#abe6ad" height="4" rx="1" ry="1" width="4" x="20.8" y="41.300000000000004"><title>2024-01-19 6.9 mins</title></rect><rect fill="#65bd6a" height="4" rx="1" ry="1" width="4" x="20.8" y="46.699999999999996"><title>2024-01-20 89.45 mins</title></rect><rect fill="#67bf6c" height="4" rx="1" ry="1" width="4" x="20.8" y="52.1"><title>2024-01-21 37.32 mins</title></rect><rect fill="#68c06d" height="4" rx="1" ry="1" width="4" x="26.200000000000003" y="19.7"><title>2024-01-22 25.87 mins</title></rect><rect fill="#68c06d" height="4" rx="1" ry="1" width="4" x="26.200000000000003" y="25.1"><title>2024-01-23 29.4 mins</title></rect><rect fill="#67bf6c" height="4" rx="1" ry="1" width="4" x="26.200000000000003" y="30.5"><title>2024-01-24 49.38 mins</title></rect><rect fill="#abe7ad" height="4" rx="1" ry="1" width="4" x="26.200000000000003" y="35.9"><title>2024-01-25 3.45 mins</title></rect><rect fill="#66be6b" height="4" rx="1" ry="1" width="4" x="26.200000000000003" y="41.300000000000004"><title>2024-01-26 67.68 mins</title></rect><rect fill="#a8e5aa" height="4" rx="1" ry="1" width="4" x="26.200000000000003" y="46.699999999999996"><title>2024-01-27 21.5 mins</title></rect><rect fill="#aae6ac" height="4" rx="1" ry="1" width="4" x="26.200000000000003" y="52.1"><title>2024-01-28 10.02 mins</title></rect><rect fill="#66be6b" height="4" rx="1" ry="1" width="4" x="31.6" y="19.7"><title>2024-01-29 67.73 mins</title></rect><rect fill="#66be6b" height="4" rx="1" ry="1" width="4" x="31.6" y="25.1"><title>2024-01-30 74.53 mins</title></rect><rect fill="#64bc69" height="4" rx="1" ry="1" width="4" x="31.6" y="30.5"><title>2024-01-31 119.78 mins</title></rect><rect fill="#64bb68" height="4" rx="1" ry="1" width="4" x="31.6" y="35.9"><title>2024-02-01 131.48 mins</title></rect><rect fill="#68c06d" height="4" rx="1" ry="1" width="4" x="31.6" y="41.300000000000004"><title>2024-02-02 29.78 mins</title></rect><rect fill="#a9e6ab" height="4" rx="1" ry="1" width="4" x="31.6" y="46.699999999999996"><title>2024-02-03 15.2 mins</title></rect><rect fill="#68c06d" height="4" rx="1" ry="1" width="4" x="31.6" y="52.1"><title>2024-02-04 25.85 mins</title></rect><text fill="#000000" style="font-size:2.5px; font-family:Arial" x="37.0" y="18.3">Feb</text><rect fill="#64bc69" height="4" rx="1" ry="1" width="4" x="37.0" y="19.7"><title>2024-02-05 117.4 mins</title></rect><rect fill="#63bb67" height="4" rx="1" ry="1" width="4" x="37.0" y="25.1"><title>2024-02-06 150.13 mins</title></rect><rect fill="#549F57" height="4" rx="1" ry="1" width="4" x="37.0" y="30.5"><title>2024-02-07 225.83 mins</title></rect><rect fill="#67bf6c" height="4" rx="1" ry="1" width="4" x="37.0" y="35.9"><title>2024-02-08 43.72 mins</title></rect><rect fill="#549F57" height="4" rx="1" ry="1" width="4" x="37.0" y="41.300000000000004"><title>2024-02-09 341.37 mins</title></rect><rect fill="#549F57" height="4" rx="1" ry="1" width="4" x="37.0" y="46.699999999999996"><title>2024-02-10 295.78 mins</title></rect><rect fill="#64bc69" height="4" rx="1" ry="1" width="4" x="37.0" y="52.1"><title>2024-02-11 108.95 mins</title></rect><rect fill="#62ba67" height="4" rx="1" ry="1" width="4" x="42.4" y="19.7"><title>2024-02-12 160.18 mins</title></rect><rect fill="#68c06d" height="4" rx="1" ry="1" width="4" x="42.4" y="25.1"><title>2024-02-13 29.5 mins</title></rect><rect fill="#549F57" height="4" rx="1" ry="1" width="4" x="42.4" y="30.5"><title>2024-02-14 273.95 mins</title></rect><rect fill="#64bc69" height="4" rx="1" ry="1" width="4" x="42.4" y="35.9"><title>2024-02-15 125.02 mins</title></rect><rect fill="#66be6b" height="4" rx="1" ry="1" width="4" x="42.4" y="41.300000000000004"><title>2024-02-16 73.17 mins</title></rect><rect fill="#549F57" height="4" rx="1" ry="1" width="4" x="42.4" y="46.699999999999996"><title>2024-02-17 237.97 mins</title></rect><rect fill="#549F57" height="4" rx="1" ry="1" width="4" x="42.4" y="52.1"><title>2024-02-18 186.32 mins</title></rect><rect fill="#549F57" height="4" rx="1" ry="1" width="4" x="47.8" y="19.7"><title>2024-02-19 348.23 mins</title></rect><rect fill="#549F57" height="4" rx="1" ry="1" width="4" x="47.8" y="25.1"><title>2024-02-20 339.25 mins</title></rect><rect fill="#549F57" height="4" rx="1" ry="1" width="4" x="47.8" y="30.5"><title>2024-02-21 631.85 mins</title></rect><rect fill="#549F57" height="4" rx="1" ry="1" width="4" x="47.8" y="35.9"><title>2024-02-22 329.37 mins</title></rect><rect fill="#66be6b" height="4" rx="1" ry="1" width="4" x="47.8" y="41.300000000000004"><title>2024-02-23 77.37 mins</title></rect><rect fill="#63ba67" height="4" rx="1" ry="1" width="4" x="47.8" y="46.699999999999996"><title>2024-02-24 155.17 mins</title></rect><rect fill="#549F57" height="4" rx="1" ry="1" width="4" x="47.8" y="52.1"><title>2024-02-25 452.67 mins</title></rect><rect fill="#67bf6c" height="4" rx="1" ry="1" width="4" x="53.199999999999996" y="19.7"><title>2024-02-26 46.52 mins</title></rect><rect fill="#549F57" height="4" rx="1" ry="1" width="4" x="53.199999999999996" y="25.1"><title>2024-02-27 229.63 mins</title></rect><rect fill="#62ba67" height="4" rx="1" ry="1" width="4" x="53.199999999999996" y="30.5"><title>2024-02-28 168.68 mins</title></rect><rect fill="#549F57" height="4" rx="1" ry="1" width="4" x="53.199999999999996" y="35.9"><title>2024-02-29 309.43 mins</title></rect><rect fill="#66be6b" height="4" rx="1" ry="1" width="4" x="53.199999999999996" y="41.300000000000004"><title>2024-03-01 67.55 mins</title></rect><rect fill="#66be6a" height="4" rx="1" ry="1" width="4" x="53.199999999999996" y="46.699999999999996"><title>2024-03-02 80.73 mins</title></rect><rect fill="#62ba67" height="4" rx="1" ry="1" width="4" x="53.199999999999996" y="52.1"><title>2024-03-03 170.77 mins</title></rect><text fill="#000000" style="font-size:2.5px; font-family:Arial" x="58.599999999999994" y="18.3">Mar</text><rect fill="#549F57" height="4" rx="1" ry="1" width="4" x="58.599999999999994" y="19.7"><title>2024-03-04 608.48 mins</title></rect><rect fill="#549F57" height="4" rx="1" ry="1" width="4" x="58.599999999999994" y="25.1"><title>2024-03-05 545.58 mins</title></rect><rect fill="#549F57" height="4" rx="1" ry="1" width="4" x="58.599999999999994" y="30.5"><title>2024-03-06 351.82 mins</title></rect><rect fill="#549F57" height="4" rx="1" ry="1" width="4" x="58.599999999999994" y="35.9"><title>2024-03-07 363.77 mins</title></rect><rect fill="#549F57" height="4" rx="1" ry="1" width="4" x="58.599999999999994" y="41.300000000000004"><title>2024-03-08 505.62 mins</title></rect><rect fill="#63bb68" height="4" rx="1" ry="1" width="4" x="58.599999999999994" y="46.699999999999996"><title>2024-03-09 136.17 mins</title></rect><rect fill="#549F57" height="4" rx="1" ry="1" width="4" x="58.599999999999994" y="52.1"><title>2024-03-10 293.58 mins</title></rect><rect fill="#549F57" height="4" rx="1" ry="1" width="4" x="63.99999999999999" y="19.7"><title>2024-03-11 376.9 mins</title></rect><rect fill="#549F57" height="4" rx="1" ry="1" width="4" x="63.99999999999999" y="25.1"><title>2024-03-12 392.27 mins</title></rect><rect fill="#549F57" height="4" rx="1" ry="1" width="4" x="63.99999999999999" y="30.5"><title>2024-03-13 482.12 mins</title></rect><rect fill="#549F57" height="4" rx="1" ry="1" width="4" x="63.99999999999999" y="35.9"><title>2024-03-14 404.67 mins</title></rect><rect fill="#549F57" height="4" rx="1" ry="1" width="4" x="63.99999999999999" y="41.300000000000004"><title>2024-03-15 254.17 mins</title></rect><rect fill="#abe6ad" height="4" rx="1" ry="1" width="4" x="63.99999999999999" y="46.699999999999996"><title>2024-03-16 8.28 mins</title></rect><rect fill="#549F57" height="4" rx="1" ry="1" width="4" x="63.99999999999999" y="52.1"><title>2024-03-17 301.3 mins</title></rect><rect fill="#549F57" height="4" rx="1" ry="1" width="4" x="69.39999999999999" y="19.7"><title>2024-03-18 270.8 mins</title></rect><rect fill="#549F57" height="4" rx="1" ry="1" width="4" x="69.39999999999999" y="25.1"><title>2024-03-19 335.57 mins</title></rect><rect fill="#549F57" height="4" rx="1" ry="1" width="4" x="69.39999999999999" y="30.5"><title>2024-03-20 373.82 mins</title></rect><rect fill="#549F57" height="4" rx="1" ry="1" width="4" x="69.39999999999999" y="35.9"><title>2024-03-21 494.27 mins</title></rect><rect fill="#549F57" height="4" rx="1" ry="1" width="4" x="69.39999999999999" y="41.300000000000004"><title>2024-03-22 532.43 mins</title></rect><rect fill="#63bb67" height="4" rx="1" ry="1" width="4" x="69.39999999999999" y="46.699999999999996"><title>2024-03-23 149.98 mins</title></rect><rect fill="#549F57" height="4" rx="1" ry="1" width="4" x="69.39999999999999" y="52.1"><title>2024-03-24 214.53 mins</title></rect><rect fill="#549F57" height="4" rx="1" ry="1" width="4" x="74.8" y="19.7"><title>2024-03-25 293.42 mins</title></rect><rect fill="#549F57" height="4" rx="1" ry="1" width="4" x="74.8" y="25.1"><title>2024-03-26 640.47 mins</title></rect><rect fill="#549F57" height="4" rx="1" ry="1" width="4" x="74.8" y="30.5"><title>2024-03-27 594.87 mins</title></rect><rect fill="#549F57" height="4" rx="1" ry="1" width="4" x="74.8" y="35.9"><title>2024-03-28 450.42 mins</title></rect><rect fill="#63ba67" height="4" rx="1" ry="1" width="4" x="74.8" y="41.300000000000004"><title>2024-03-29 156.02 mins</title></rect><rect fill="#67bf6c" height="4" rx="1" ry="1" width="4" x="74.8" y="46.699999999999996"><title>2024-03-30 49.53 mins</title></rect><rect fill="#549F57" height="4" rx="1" ry="1" width="4" x="74.8" y="52.1"><title>2024-03-31 305.2 mins</title></rect><text fill="#000000" style="font-size:2.5px; font-family:Arial" x="80.2" y="18.3">Apr</text><rect fill="#549F57" height="4" rx="1" ry="1" width="4" x="80.2" y="19.7"><title>2024-04-01 457.82 mins</title></rect><rect fill="#549F57" height="4" rx="1" ry="1" width="4" x="80.2" y="25.1"><title>2024-04-02 423.37 mins</title></rect><rect fill="#549F57" height="4" rx="1" ry="1" width="4" x="80.2" y="30.5"><title>2024-04-03 433.6 mins</title></rect><rect fill="#549F57" height="4" rx="1" ry="1" width="4" x="80.2" y="35.9"><title>2024-04-04 435.82 mins</title></rect><rect fill="#549F57" height="4" rx="1" ry="1" width="4" x="80.2" y="41.300000000000004"><title>2024-04-05 257.55 mins</title></rect><rect fill="#66be6b" height="4" rx="1" ry="1" width="4" x="80.2" y="46.699999999999996"><title>2024-04-06 60.45 mins</title></rect><rect fill="#549F57" height="4" rx="1" ry="1" width="4" x="80.2" y="52.1"><title>2024-04-07 249.55 mins</title></rect><rect fill="#549F57" height="4" rx="1" ry="1" width="4" x="85.60000000000001" y="19.7"><title>2024-04-08 443.57 mins</title></rect><rect fill="#549F57" height="4" rx="1" ry="1" width="4" x="85.60000000000001" y="25.1"><title>2024-04-09 287.4 mins</title></rect><rect fill="#549F57" height="4" rx="1" ry="1" width="4" x="85.60000000000001" y="30.5"><title>2024-04-10 269.35 mins</title></rect><rect fill="#549F57" height="4" rx="1" ry="1" width="4" x="85.60000000000001" y="35.9"><title>2024-04-11 305.92 mins</title></rect><rect fill="#64bc69" height="4" rx="1" ry="1" width="4" x="85.60000000000001" y="41.300000000000004"><title>2024-04-12 112.4 mins</title></rect><rect fill="#abe7ad" height="4" rx="1" ry="1" width="4" x="85.60000000000001" y="46.699999999999996"><title>2024-04-13 5.25 mins</title></rect><rect fill="#549F57" height="4" rx="1" ry="1" width="4" x="85.60000000000001" y="52.1"><title>2024-04-14 654.93 mins</title></rect><rect fill="#67bf6c" height="4" rx="1" ry="1" width="4" x="91.00000000000001" y="19.7"><title>2024-04-15 43.67 mins</title></rect><rect fill="#66be6b" height="4" rx="1" ry="1" width="4" x="91.00000000000001" y="25.1"><title>2024-04-16 76.98 mins</title></rect><rect fill="#62ba67" height="4" rx="1" ry="1" width="4" x="91.00000000000001" y="30.5"><title>2024-04-17 162.22 mins</title></rect><rect fill="#ace7ae" height="4" rx="1" ry="1" width="4" x="91.00000000000001" y="35.9"><title>2024-04-18 0.42 mins</title></rect><rect fill="#abe7ad" height="4" rx="1" ry="1" width="4" x="91.00000000000001" y="41.300000000000004"><title>2024-04-19 4.68 mins</title></rect><rect fill="#66be6b" height="4" rx="1" ry="1" width="4" x="91.00000000000001" y="46.699999999999996"><title>2024-04-20 73.3 mins</title></rect><rect fill="#67bf6c" height="4" rx="1" ry="1" width="4" x="91.00000000000001" y="52.1"><title>2024-04-21 50.25 mins</title></rect><rect fill="#549F57" height="4" rx="1" ry="1" width="4" x="96.40000000000002" y="19.7"><title>2024-04-22 214.67 mins</title></rect><rect fill="#a9e6ab" height="4" rx="1" ry="1" width="4" x="96.40000000000002" y="25.1"><title>2024-04-23 17.22 mins</title></rect><rect fill="#549F57" height="4" rx="1" ry="1" width="4" x="96.40000000000002" y="30.5"><title>2024-04-24 529.7 mins</title></rect><rect fill="#67bf6c" height="4" rx="1" ry="1" width="4" x="96.40000000000002" y="35.9"><title>2024-04-25 41.75 mins</title></rect><rect fill="#63bb68" height="4" rx="1" ry="1" width="4" x="96.40000000000002" y="41.300000000000004"><title>2024-04-26 135.47 mins</title></rect><rect fill="#68c06d" height="4" rx="1" ry="1" width="4" x="96.40000000000002" y="46.699999999999996"><title>2024-04-27 28.9 mins</title></rect><rect fill="#ace7ae" height="4" rx="1" ry="1" width="4" x="96.40000000000002" y="52.1"><title>2024-04-28 2.22 mins</title></rect><rect fill="#ace7ae" height="4" rx="1" ry="1" width="4" x="101.80000000000003" y="19.7"><title>2024-04-29 2.73 mins</title></rect><rect fill="#abe6ad" height="4" rx="1" ry="1" width="4" x="101.80000000000003" y="25.1"><title>2024-04-30 7.58 mins</title></rect><rect fill="#a8e5aa" height="4" rx="1" ry="1" width="4" x="101.80000000000003" y="30.5"><title>2024-05-01 21.98 mins</title></rect><rect fill="#64bc69" height="4" rx="1" ry="1" width="4" x="101.80000000000003" y="35.9"><title>2024-05-02 113.22 mins</title></rect><rect fill="#ace7ae" height="4" rx="1" ry="1" width="4" x="101.80000000000003" y="41.300000000000004"><title>2024-05-03 1.03 mins</title></rect><rect fill="#ace7ae" height="4" rx="1" ry="1" width="4" x="101.80000000000003" y="46.699999999999996"><title>2024-05-04 1.1 mins</title></rect><rect fill="#ace7ae" height="4" rx="1" ry="1" width="4" x="101.80000000000003" y="52.1"><title>2024-05-05 0.9 mins</title></rect><text fill="#000000" style="font-size:2.5px; font-family:Arial" x="107.20000000000003" y="18.3">May</text><rect fill="#61b966" height="4" rx="1" ry="1" width="4" x="107.20000000000003" y="19.7"><title>2024-05-06 184.18 mins</title></rect><rect fill="#549F57" height="4" rx="1" ry="1" width="4" x="107.20000000000003" y="25.1"><title>2024-05-07 198.12 mins</title></rect><rect fill="#aae6ac" height="4" rx="1" ry="1" width="4" x="107.20000000000003" y="30.5"><title>2024-05-08 11.15 mins</title></rect><rect fill="#65bd6a" height="4" rx="1" ry="1" width="4" x="107.20000000000003" y="35.9"><title>2024-05-09 91.48 mins</title></rect><rect fill="#67bf6c" height="4" rx="1" ry="1" width="4" x="107.20000000000003" y="41.300000000000004"><title>2024-05-10 43.42 mins</title></rect><rect fill="#ace7ae" height="4" rx="1" ry="1" width="4" x="107.20000000000003" y="46.699999999999996"><title>2024-05-11 0.27 mins</title></rect><rect fill="#a9e6ab" height="4" rx="1" ry="1" width="4" x="107.20000000000003" y="52.1"><title>2024-05-12 15.25 mins</title></rect><rect fill="#abe6ad" height="4" rx="1" ry="1" width="4" x="112.60000000000004" y="19.7"><title>2024-05-13 7.92 mins</title></rect><rect fill="#aae6ac" height="4" rx="1" ry="1" width="4" x="112.60000000000004" y="25.1"><title>2024-05-14 10.03 mins</title></rect><rect fill="#ace7ae" height="4" rx="1" ry="1" width="4" x="112.60000000000004" y="30.5"><title>2024-05-15 2.35 mins</title></rect><rect fill="#a9e6ab" height="4" rx="1" ry="1" width="4" x="112.60000000000004" y="35.9"><title>2024-05-16 17.52 mins</title></rect><rect fill="#abe7ad" height="4" rx="1" ry="1" width="4" x="112.60000000000004" y="41.300000000000004"><title>2024-05-17 6.23 mins</title></rect><rect fill="#ace7ae" height="4" rx="1" ry="1" width="4" x="112.60000000000004" y="46.699999999999996"><title>2024-05-18 0.62 mins</title></rect><rect fill="#ace7ae" height="4" rx="1" ry="1" width="4" x="112.60000000000004" y="52.1"><title>2024-05-19 1.45 mins</title></rect><rect fill="#ace7ae" height="4" rx="1" ry="1" width="4" x="118.00000000000004" y="19.7"><title>2024-05-20 1.33 mins</title></rect><rect fill="#abe7ad" height="4" rx="1" ry="1" width="4" x="118.00000000000004" y="25.1"><title>2024-05-21 5.82 mins</title></rect><rect fill="#65bd6a" height="4" rx="1" ry="1" width="4" x="118.00000000000004" y="30.5"><title>2024-05-22 90.37 mins</title></rect><rect fill="#aae6ac" height="4" rx="1" ry="1" width="4" x="118.00000000000004" y="35.9"><title>2024-05-23 9.93 mins</title></rect><rect fill="#a9e6ab" height="4" rx="1" ry="1" width="4" x="118.00000000000004" y="41.300000000000004"><title>2024-05-24 18.18 mins</title></rect><rect fill="#abe7ad" height="4" rx="1" ry="1" width="4" x="118.00000000000004" y="46.699999999999996"><title>2024-05-25 3.85 mins</title></rect><rect fill="#a9e6ab" height="4" rx="1" ry="1" width="4" x="118.00000000000004" y="52.1"><title>2024-05-26 19.08 mins</title></rect><rect fill="#ace7ae" height="4" rx="1" ry="1" width="4" x="123.40000000000005" y="19.7"><title>2024-05-27 0.08 mins</title></rect><rect fill="#abe7ad" height="4" rx="1" ry="1" width="4" x="123.40000000000005" y="25.1"><title>2024-05-28 6.7 mins</title></rect><rect fill="#aae6ac" height="4" rx="1" ry="1" width="4" x="123.40000000000005" y="30.5"><title>2024-05-29 10.4 mins</title></rect><rect fill="#aae6ac" height="4" rx="1" ry="1" width="4" x="123.40000000000005" y="35.9"><title>2024-05-30 9.98 mins</title></rect><rect fill="#abe6ad" height="4" rx="1" ry="1" width="4" x="123.40000000000005" y="41.300000000000004"><title>2024-05-31 7.48 mins</title></rect><rect fill="#EBEDF0" height="4" rx="1" ry="1" width="4" x="123.40000000000005" y="46.699999999999996"><title>2024-06-01</title></rect><rect fill="#ace7ae" height="4" rx="1" ry="1" width="4" x="123.40000000000005" y="52.1"><title>2024-06-02 0.18 mins</title></rect><text fill="#000000" style="font-size:2.5px; font-family:Arial" x="128.80000000000004" y="18.3">Jun</text><rect fill="#abe7ad" height="4" rx="1" ry="1" width="4" x="128.80000000000004" y="19.7"><title>2024-06-03 5.85 mins</title></rect><rect fill="#68c06d" height="4" rx="1" ry="1" width="4" x="128.80000000000004" y="25.1"><title>2024-06-04 29.68 mins</title></rect><rect fill="#ace7ae" height="4" rx="1" ry="1" width="4" x="128.80000000000004" y="30.5"><title>2024-06-05 0.03 mins</title></rect><rect fill="#68c06d" height="4" rx="1" ry="1" width="4" x="128.80000000000004" y="35.9"><title>2024-06-06 27.53 mins</title></rect><rect fill="#EBEDF0" height="4" rx="1" ry="1" width="4" x="128.80000000000004" y="41.300000000000004"><title>2024-06-07</title></rect><rect fill="#ace7ae" height="4" rx="1" ry="1" width="4" x="128.80000000000004" y="46.699999999999996"><title>2024-06-08 2.47 mins</title></rect><rect fill="#aae6ac" height="4" rx="1" ry="1" width="4" x="128.80000000000004" y="52.1"><title>2024-06-09 13.22 mins</title></rect><rect fill="#ace7ae" height="4" rx="1" ry="1" width="4" x="134.20000000000005" y="19.7"><title>2024-06-10 0.88 mins</title></rect><rect fill="#ace7ae" height="4" rx="1" ry="1" width="4" x="134.20000000000005" y="25.1"><title>2024-06-11 2.13 mins</title></rect><rect fill="#ace7ae" height="4" rx="1" ry="1" width="4" x="134.20000000000005" y="30.5"><title>2024-06-12 2.22 mins</title></rect><rect fill="#ace7ae" height="4" rx="1" ry="1" width="4" x="134.20000000000005" y="35.9"><title>2024-06-13 1.85 mins</title></rect><rect fill="#ace7ae" height="4" rx="1" ry="1" width="4" x="134.20000000000005" y="41.300000000000004"><title>2024-06-14 2.68 mins</title></rect><rect fill="#ace7ae" height="4" rx="1" ry="1" width="4" x="134.20000000000005" y="46.699999999999996"><title>2024-06-15 0.42 mins</title></rect><rect fill="#ace7ae" height="4" rx="1" ry="1" width="4" x="134.20000000000005" y="52.1"><title>2024-06-16 0.13 mins</title></rect><rect fill="#ace7ae" height="4" rx="1" ry="1" width="4" x="139.60000000000005" y="19.7"><title>2024-06-17 0.58 mins</title></rect><rect fill="#ace7ae" height="4" rx="1" ry="1" width="4" x="139.60000000000005" y="25.1"><title>2024-06-18 1.38 mins</title></rect><rect fill="#aae6ac" height="4" rx="1" ry="1" width="4" x="139.60000000000005" y="30.5"><title>2024-06-19 12.1 mins</title></rect><rect fill="#abe7ad" height="4" rx="1" ry="1" width="4" x="139.60000000000005" y="35.9"><title>2024-06-20 3.08 mins</title></rect><rect fill="#ace7ae" height="4" rx="1" ry="1" width="4" x="139.60000000000005" y="41.300000000000004"><title>2024-06-21 2.18 mins</title></rect><rect fill="#abe7ad" height="4" rx="1" ry="1" width="4" x="139.60000000000005" y="46.699999999999996"><title>2024-06-22 5.62 mins</title></rect><rect fill="#ace7ae" height="4" rx="1" ry="1" width="4" x="139.60000000000005" y="52.1"><title>2024-06-23 1.7 mins</title></rect><rect fill="#abe7ad" height="4" rx="1" ry="1" width="4" x="145.00000000000006" y="19.7"><title>2024-06-24 3.33 mins</title></rect><rect fill="#abe7ad" height="4" rx="1" ry="1" width="4" x="145.00000000000006" y="25.1"><title>2024-06-25 4.27 mins</title></rect><rect fill="#ace7ae" height="4" rx="1" ry="1" width="4" x="145.00000000000006" y="30.5"><title>2024-06-26 1.07 mins</title></rect><rect fill="#ace7ae" height="4" rx="1" ry="1" width="4" x="145.00000000000006" y="35.9"><title>2024-06-27 2.45 mins</title></rect><rect fill="#ace7ae" height="4" rx="1" ry="1" width="4" x="145.00000000000006" y="41.300000000000004"><title>2024-06-28 0.67 mins</title></rect><rect fill="#ace7ae" height="4" rx="1" ry="1" width="4" x="145.00000000000006" y="46.699999999999996"><title>2024-06-29 0.42 mins</title></rect><rect fill="#aae6ac" height="4" rx="1" ry="1" width="4" x="145.00000000000006" y="52.1"><title>2024-06-30 13.08 mins</title></rect><text fill="#000000" style="font-size:2.5px; font-family:Arial" x="150.40000000000006" y="18.3">Jul</text><rect fill="#64bc69" height="4" rx="1" ry="1" width="4" x="150.40000000000006" y="19.7"><title>2024-07-01 122.47 mins</title></rect><rect fill="#549F57" height="4" rx="1" ry="1" width="4" x="150.40000000000006" y="25.1"><title>2024-07-02 359.07 mins</title></rect><rect fill="#abe7ad" height="4" rx="1" ry="1" width="4" x="150.40000000000006" y="30.5"><title>2024-07-03 4.58 mins</title></rect><rect fill="#abe7ad" height="4" rx="1" ry="1" width="4" x="150.40000000000006" y="35.9"><title>2024-07-04 5.05 mins</title></rect><rect fill="#ace7ae" height="4" rx="1" ry="1" width="4" x="150.40000000000006" y="41.300000000000004"><title>2024-07-05 2.22 mins</title></rect><rect fill="#ace7ae" height="4" rx="1" ry="1" width="4" x="150.40000000000006" y="46.699999999999996"><title>2024-07-06 0.47 mins</title></rect><rect fill="#ace7ae" height="4" rx="1" ry="1" width="4" x="150.40000000000006" y="52.1"><title>2024-07-07 0.1 mins</title></rect><rect fill="#ace7ae" height="4" rx="1" ry="1" width="4" x="155.80000000000007" y="19.7"><title>2024-07-08 1.62 mins</title></rect><rect fill="#ace7ae" height="4" rx="1" ry="1" width="4" x="155.80000000000007" y="25.1"><title>2024-07-09 0.73 mins</title></rect><rect fill="#549F57" height="4" rx="1" ry="1" width="4" x="155.80000000000007" y="30.5"><title>2024-07-10 430.28 mins</title></rect><rect fill="#ace7ae" height="4" rx="1" ry="1" width="4" x="155.80000000000007" y="35.9"><title>2024-07-11 0.97 mins</title></rect><rect fill="#68c06d" height="4" rx="1" ry="1" width="4" x="155.80000000000007" y="41.300000000000004"><title>2024-07-12 25.55 mins</title></rect><rect fill="#65bd6a" height="4" rx="1" ry="1" width="4" x="155.80000000000007" y="46.699999999999996"><title>2024-07-13 92.28 mins</title></rect><rect fill="#66be6b" height="4" rx="1" ry="1" width="4" x="155.80000000000007" y="52.1"><title>2024-07-14 61.45 mins</title></rect><rect fill="#67bf6c" height="4" rx="1" ry="1" width="4" x="161.20000000000007" y="19.7"><title>2024-07-15 48.5 mins</title></rect><rect fill="#a9e6ab" height="4" rx="1" ry="1" width="4" x="161.20000000000007" y="25.1"><title>2024-07-16 17.65 mins</title></rect><rect fill="#67bf6c" height="4" rx="1" ry="1" width="4" x="161.20000000000007" y="30.5"><title>2024-07-17 51.53 mins</title></rect><rect fill="#ace7ae" height="4" rx="1" ry="1" width="4" x="161.20000000000007" y="35.9"><title>2024-07-18 0.37 mins</title></rect><rect fill="#ace7ae" height="4" rx="1" ry="1" width="4" x="161.20000000000007" y="41.300000000000004"><title>2024-07-19 1.2 mins</title></rect><rect fill="#66be6b" height="4" rx="1" ry="1" width="4" x="161.20000000000007" y="46.699999999999996"><title>2024-07-20 65.75 mins</title></rect><rect fill="#65bd6a" height="4" rx="1" ry="1" width="4" x="161.20000000000007" y="52.1"><title>2024-07-21 87.27 mins</title></rect><rect fill="#ace7ae" height="4" rx="1" ry="1" width="4" x="166.60000000000008" y="19.7"><title>2024-07-22 0.78 mins</title></rect><rect fill="#ace7ae" height="4" rx="1" ry="1" width="4" x="166.60000000000008" y="25.1"><title>2024-07-23 0.7 mins</title></rect><rect fill="#ace7ae" height="4" rx="1" ry="1" width="4" x="166.60000000000008" y="30.5"><title>2024-07-24 0.55 mins</title></rect><rect fill="#EBEDF0" height="4" rx="1" ry="1" width="4" x="166.60000000000008" y="35.9"><title>2024-07-25</title></rect><rect fill="#67bf6c" height="4" rx="1" ry="1" width="4" x="166.60000000000008" y="41.300000000000004"><title>2024-07-26 36.38 mins</title></rect><rect fill="#ace7ae" height="4" rx="1" ry="1" width="4" x="166.60000000000008" y="46.699999999999996"><title>2024-07-27 0.12 mins</title></rect><rect fill="#EBEDF0" height="4" rx="1" ry="1" width="4" x="166.60000000000008" y="52.1"><title>2024-07-28</title></rect><rect fill="#ace7ae" height="4" rx="1" ry="1" width="4" x="172.00000000000009" y="19.7"><title>2024-07-29 1.73 mins</title></rect><rect fill="#ace7ae" height="4" rx="1" ry="1" width="4" x="172.00000000000009" y="25.1"><title>2024-07-30 0.12 mins</title></rect><rect fill="#ace7ae" height="4" rx="1" ry="1" width="4" x="172.00000000000009" y="30.5"><title>2024-07-31 0.48 mins</title></rect><rect fill="#abe7ad" height="4" rx="1" ry="1" width="4" x="172.00000000000009" y="35.9"><title>2024-08-01 3.38 mins</title></rect><rect fill="#abe6ad" height="4" rx="1" ry="1" width="4" x="172.00000000000009" y="41.300000000000004"><title>2024-08-02 7.17 mins</title></rect><rect fill="#ace7ae" height="4" rx="1" ry="1" width="4" x="172.00000000000009" y="46.699999999999996"><title>2024-08-03 2.43 mins</title></rect><rect fill="#abe7ad" height="4" rx="1" ry="1" width="4" x="172.00000000000009" y="52.1"><title>2024-08-04 3.53 mins</title></rect><text fill="#000000" style="font-size:2.5px; font-family:Arial" x="177.4000000000001" y="18.3">Aug</text><rect fill="#ace7ae" height="4" rx="1" ry="1" width="4" x="177.4000000000001" y="19.7"><title>2024-08-05 2.15 mins</title></rect><rect fill="#aae6ac" height="4" rx="1" ry="1" width="4" x="177.4000000000001" y="25.1"><title>2024-08-06 10.2 mins</title></rect><rect fill="#63ba67" height="4" rx="1" ry="1" width="4" x="177.4000000000001" y="30.5"><title>2024-08-07 154.28 mins</title></rect><rect fill="#ace7ae" height="4" rx="1" ry="1" width="4" x="177.4000000000001" y="35.9"><title>2024-08-08 0.23 mins</title></rect><rect fill="#ace7ae" height="4" rx="1" ry="1" width="4" x="177.4000000000001" y="41.300000000000004"><title>2024-08-09 0.67 mins</title></rect><rect fill="#ace7ae" height="4" rx="1" ry="1" width="4" x="177.4000000000001" y="46.699999999999996"><title>2024-08-10 0.08 mins</title></rect><rect fill="#ace7ae" height="4" rx="1" ry="1" width="4" x="177.4000000000001" y="52.1"><title>2024-08-11 1.98 mins</title></rect><rect fill="#66be6b" height="4" rx="1" ry="1" width="4" x="182.8000000000001" y="19.7"><title>2024-08-12 69.77 mins</title></rect><rect fill="#66be6b" height="4" rx="1" ry="1" width="4" x="182.8000000000001" y="25.1"><title>2024-08-13 69.45 mins</title></rect><rect fill="#ace7ae" height="4" rx="1" ry="1" width="4" x="182.8000000000001" y="30.5"><title>2024-08-14 1.75 mins</title></rect><rect fill="#ace7ae" height="4" rx="1" ry="1" width="4" x="182.8000000000001" y="35.9"><title>2024-08-15 1.13 mins</title></rect><rect fill="#66be6b" height="4" rx="1" ry="1" width="4" x="182.8000000000001" y="41.300000000000004"><title>2024-08-16 67.78 mins</title></rect><rect fill="#ace7ae" height="4" rx="1" ry="1" width="4" x="182.8000000000001" y="46.699999999999996"><title>2024-08-17 0.1 mins</title></rect><rect fill="#61b966" height="4" rx="1" ry="1" width="4" x="182.8000000000001" y="52.1"><title>2024-08-18 186.03 mins</title></rect><rect fill="#64bb68" height="4" rx="1" ry="1" width="4" x="188.2000000000001" y="19.7"><title>2024-08-19 129.2 mins</title></rect><rect fill="#abe6ad" height="4" rx="1" ry="1" width="4" x="188.2000000000001" y="25.1"><title>2024-08-20 6.98 mins</title></rect><rect fill="#ace7ae" height="4" rx="1" ry="1" width="4" x="188.2000000000001" y="30.5"><title>2024-08-21 0.83 mins</title></rect><rect fill="#abe7ad" height="4" rx="1" ry="1" width="4" x="188.2000000000001" y="35.9"><title>2024-08-22 3.3 mins</title></rect><rect fill="#68c06c" height="4" rx="1" ry="1" width="4" x="188.2000000000001" y="41.300000000000004"><title>2024-08-23 34.53 mins</title></rect><rect fill="#64bc69" height="4" rx="1" ry="1" width="4" x="188.2000000000001" y="46.699999999999996"><title>2024-08-24 121.43 mins</title></rect><rect fill="#abe7ad" height="4" rx="1" ry="1" width="4" x="188.2000000000001" y="52.1"><title>2024-08-25 6.1 mins</title></rect><rect fill="#a9e6ab" height="4" rx="1" ry="1" width="4" x="193.6000000000001" y="19.7"><title>2024-08-26 16.87 mins</title></rect><rect fill="#aae6ad" height="4" rx="1" ry="1" width="4" x="193.6000000000001" y="25.1"><title>2024-08-27 8.92 mins</title></rect><rect fill="#ace7ae" height="4" rx="1" ry="1" width="4" x="193.6000000000001" y="30.5"><title>2024-08-28 1.17 mins</title></rect><rect fill="#abe7ad" height="4" rx="1" ry="1" width="4" x="193.6000000000001" y="35.9"><title>2024-08-29 3.98 mins</title></rect><rect fill="#abe7ad" height="4" rx="1" ry="1" width="4" x="193.6000000000001" y="41.300000000000004"><title>2024-08-30 3.1 mins</title></rect><rect fill="#ace7ae" height="4" rx="1" ry="1" width="4" x="193.6000000000001" y="46.699999999999996"><title>2024-08-31 0.15 mins</title></rect><rect fill="#68c06d" height="4" rx="1" ry="1" width="4" x="193.6000000000001" y="52.1"><title>2024-09-01 22.15 mins</title></rect><text fill="#000000" style="font-size:2.5px; font-family:Arial" x="199.0000000000001" y="18.3">Sep</text><rect fill="#a9e6ab" height="4" rx="1" ry="1" width="4" x="199.0000000000001" y="19.7"><title>2024-09-02 16.97 mins</title></rect><rect fill="#abe7ad" height="4" rx="1" ry="1" width="4" x="199.0000000000001" y="25.1"><title>2024-09-03 4.2 mins</title></rect><rect fill="#ace7ae" height="4" rx="1" ry="1" width="4" x="199.0000000000001" y="30.5"><title>2024-09-04 2.02 mins</title></rect><rect fill="#aae6ac" height="4" rx="1" ry="1" width="4" x="199.0000000000001" y="35.9"><title>2024-09-05 11.63 mins</title></rect><rect fill="#ace7ae" height="4" rx="1" ry="1" width="4" x="199.0000000000001" y="41.300000000000004"><title>2024-09-06 0.6 mins</title></rect><rect fill="#ace7ae" height="4" rx="1" ry="1" width="4" x="199.0000000000001" y="46.699999999999996"><title>2024-09-07 1.78 mins</title></rect><rect fill="#65bd6a" height="4" rx="1" ry="1" width="4" x="199.0000000000001" y="52.1"><title>2024-09-08 102.45 mins</title></rect><rect fill="#a9e5ab" height="4" rx="1" ry="1" width="4" x="204.40000000000012" y="19.7"><title>2024-09-09 20.22 mins</title></rect><rect fill="#68c06d" height="4" rx="1" ry="1" width="4" x="204.40000000000012" y="25.1"><title>2024-09-10 28.5 mins</title></rect><rect fill="#aae6ac" height="4" rx="1" ry="1" width="4" x="204.40000000000012" y="30.5"><title>2024-09-11 12.63 mins</title></rect><rect fill="#ace7ae" height="4" rx="1" ry="1" width="4" x="204.40000000000012" y="35.9"><title>2024-09-12 0.5 mins</title></rect><rect fill="#67bf6c" height="4" rx="1" ry="1" width="4" x="204.40000000000012" y="41.300000000000004"><title>2024-09-13 49.2 mins</title></rect><rect fill="#ace7ae" height="4" rx="1" ry="1" width="4" x="204.40000000000012" y="46.699999999999996"><title>2024-09-14 1.88 mins</title></rect><rect fill="#abe7ad" height="4" rx="1" ry="1" width="4" x="204.40000000000012" y="52.1"><title>2024-09-15 4.93 mins</title></rect><rect fill="#ace7ae" height="4" rx="1" ry="1" width="4" x="209.80000000000013" y="19.7"><title>2024-09-16 0.27 mins</title></rect><rect fill="#abe7ad" height="4" rx="1" ry="1" width="4" x="209.80000000000013" y="25.1"><title>2024-09-17 4.28 mins</title></rect><rect fill="#a9e6ab" height="4" rx="1" ry="1" width="4" x="209.80000000000013" y="30.5"><title>2024-09-18 16.05 mins</title></rect><rect fill="#abe6ad" height="4" rx="1" ry="1" width="4" x="209.80000000000013" y="35.9"><title>2024-09-19 7.53 mins</title></rect><rect fill="#ace7ae" height="4" rx="1" ry="1" width="4" x="209.80000000000013" y="41.300000000000004"><title>2024-09-20 2.4 mins</title></rect><rect fill="#ace7ae" height="4" rx="1" ry="1" width="4" x="209.80000000000013" y="46.699999999999996"><title>2024-09-21 0.15 mins</title></rect><rect fill="#ace7ae" height="4" rx="1" ry="1" width="4" x="209.80000000000013" y="52.1"><title>2024-09-22 0.03 mins</title></rect><rect fill="#ace7ae" height="4" rx="1" ry="1" width="4" x="215.20000000000013" y="19.7"><title>2024-09-23 0.47 mins</title></rect><rect fill="#68c06d" height="4" rx="1" ry="1" width="4" x="215.20000000000013" y="25.1"><title>2024-09-24 27.02 mins</title></rect><rect fill="#ace7ae" height="4" rx="1" ry="1" width="4" x="215.20000000000013" y="30.5"><title>2024-09-25 2.15 mins</title></rect><rect fill="#ace7ae" height="4" rx="1" ry="1" width="4" x="215.20000000000013" y="35.9"><title>2024-09-26 2.37 mins</title></rect><rect fill="#ace7ae" height="4" rx="1" ry="1" width="4" x="215.20000000000013" y="41.300000000000004"><title>2024-09-27 0.15 mins</title></rect><rect fill="#ace7ae" height="4" rx="1" ry="1" width="4" x="215.20000000000013" y="46.699999999999996"><title>2024-09-28 0.2 mins</title></rect><rect fill="#ace7ae" height="4" rx="1" ry="1" width="4" x="215.20000000000013" y="52.1"><title>2024-09-29 1.4 mins</title></rect><rect fill="#ace7ae" height="4" rx="1" ry="1" width="4" x="220.60000000000014" y="19.7"><title>2024-09-30 2.32 mins</title></rect><rect fill="#abe7ad" height="4" rx="1" ry="1" width="4" x="220.60000000000014" y="25.1"><title>2024-10-01 6.4 mins</title></rect><rect fill="#ace7ae" height="4" rx="1" ry="1" width="4" x="220.60000000000014" y="30.5"><title>2024-10-02 1.03 mins</title></rect><rect fill="#ace7ae" height="4" rx="1" ry="1" width="4" x="220.60000000000014" y="35.9"><title>2024-10-03 2.13 mins</title></rect><rect fill="#ace7ae" height="4" rx="1" ry="1" width="4" x="220.60000000000014" y="41.300000000000004"><title>2024-10-04 0.27 mins</title></rect><rect fill="#abe7ad" height="4" rx="1" ry="1" width="4" x="220.60000000000014" y="46.699999999999996"><title>2024-10-05 6.05 mins</title></rect><rect fill="#ace7ae" height="4" rx="1" ry="1" width="4" x="220.60000000000014" y="52.1"><title>2024-10-06 0.58 mins</title></rect><text fill="#000000" style="font-size:2.5px; font-family:Arial" x="226.00000000000014" y="18.3">Oct</text><rect fill="#ace7ae" height="4" rx="1" ry="1" width="4" x="226.00000000000014" y="19.7"><title>2024-10-07 1.97 mins</title></rect><rect fill="#ace7ae" height="4" rx="1" ry="1" width="4" x="226.00000000000014" y="25.1"><title>2024-10-08 1.52 mins</title></rect><rect fill="#67bf6c" height="4" rx="1" ry="1" width="4" x="226.00000000000014" y="30.5"><title>2024-10-09 51.33 mins</title></rect><rect fill="#ace7ae" height="4" rx="1" ry="1" width="4" x="226.00000000000014" y="35.9"><title>2024-10-10 0.7 mins</title></rect><rect fill="#aae6ac" height="4" rx="1" ry="1" width="4" x="226.00000000000014" y="41.300000000000004"><title>2024-10-11 9.12 mins</title></rect><rect fill="#aae6ac" height="4" rx="1" ry="1" width="4" x="226.00000000000014" y="46.699999999999996"><title>2024-10-12 11.1 mins</title></rect><rect fill="#62b966" height="4" rx="1" ry="1" width="4" x="226.00000000000014" y="52.1"><title>2024-10-13 175.4 mins</title></rect><rect fill="#abe7ad" height="4" rx="1" ry="1" width="4" x="231.40000000000015" y="19.7"><title>2024-10-14 3.95 mins</title></rect><rect fill="#aae6ac" height="4" rx="1" ry="1" width="4" x="231.40000000000015" y="25.1"><title>2024-10-15 13.73 mins</title></rect><rect fill="#ace7ae" height="4" rx="1" ry="1" width="4" x="231.40000000000015" y="30.5"><title>2024-10-16 0.45 mins</title></rect><rect fill="#ace7ae" height="4" rx="1" ry="1" width="4" x="231.40000000000015" y="35.9"><title>2024-10-17 0.68 mins</title></rect><rect fill="#abe7ad" height="4" rx="1" ry="1" width="4" x="231.40000000000015" y="41.300000000000004"><title>2024-10-18 3.05 mins</title></rect><rect fill="#68c06d" height="4" rx="1" ry="1" width="4" x="231.40000000000015" y="46.699999999999996"><title>2024-10-19 31.42 mins</title></rect><rect fill="#ace7ae" height="4" rx="1" ry="1" width="4" x="231.40000000000015" y="52.1"><title>2024-10-20 2.27 mins</title></rect><rect fill="#68c06d" height="4" rx="1" ry="1" width="4" x="236.80000000000015" y="19.7"><title>2024-10-21 30.3 mins</title></rect><rect fill="#ace7ae" height="4" rx="1" ry="1" width="4" x="236.80000000000015" y="25.1"><title>2024-10-22 1.42 mins</title></rect><rect fill="#ace7ae" height="4" rx="1" ry="1" width="4" x="236.80000000000015" y="30.5"><title>2024-10-23 1.2 mins</title></rect><rect fill="#ace7ae" height="4" rx="1" ry="1" width="4" x="236.80000000000015" y="35.9"><title>2024-10-24 2.02 mins</title></rect><rect fill="#ace7ae" height="4" rx="1" ry="1" width="4" x="236.80000000000015" y="41.300000000000004"><title>2024-10-25 0.68 mins</title></rect><rect fill="#549F57" height="4" rx="1" ry="1" width="4" x="236.80000000000015" y="46.699999999999996"><title>2024-10-26 272.08 mins</title></rect><rect fill="#a9e5ab" height="4" rx="1" ry="1" width="4" x="236.80000000000015" y="52.1"><title>2024-10-27 20.42 mins</title></rect><rect fill="#EBEDF0" height="4" rx="1" ry="1" width="4" x="242.20000000000016" y="19.7"><title>2024-10-28</title></rect><rect fill="#EBEDF0" height="4" rx="1" ry="1" width="4" x="242.20000000000016" y="25.1"><title>2024-10-29</title></rect><rect fill="#EBEDF0" height="4" rx="1" ry="1" width="4" x="242.20000000000016" y="30.5"><title>2024-10-30</title></rect><rect fill="#EBEDF0" height="4" rx="1" ry="1" width="4" x="242.20000000000016" y="35.9"><title>2024-10-31</title></rect><rect fill="#EBEDF0" height="4" rx="1" ry="1" width="4" x="242.20000000000016" y="41.300000000000004"><title>2024-11-01</title></rect><rect fill="#EBEDF0" height="4" rx="1" ry="1" width="4" x="242.20000000000016" y="46.699999999999996"><title>2024-11-02</title></rect><rect fill="#EBEDF0" height="4" rx="1" ry="1" width="4" x="242.20000000000016" y="52.1"><title>2024-11-03</title></rect><text fill="#000000" style="font-size:2.5px; font-family:Arial" x="247.60000000000016" y="18.3">Nov</text><rect fill="#EBEDF0" height="4" rx="1" ry="1" width="4" x="247.60000000000016" y="19.7"><title>2024-11-04</title></rect><rect fill="#EBEDF0" height="4" rx="1" ry="1" width="4" x="247.60000000000016" y="25.1"><title>2024-11-05</title></rect><rect fill="#EBEDF0" height="4" rx="1" ry="1" width="4" x="247.60000000000016" y="30.5"><title>2024-11-06</title></rect><rect fill="#EBEDF0" height="4" rx="1" ry="1" width="4" x="247.60000000000016" y="35.9"><title>2024-11-07</title></rect><rect fill="#EBEDF0" height="4" rx="1" ry="1" width="4" x="247.60000000000016" y="41.300000000000004"><title>2024-11-08</title></rect><rect fill="#EBEDF0" height="4" rx="1" ry="1" width="4" x="247.60000000000016" y="46.699999999999996"><title>2024-11-09</title></rect><rect fill="#EBEDF0" height="4" rx="1" ry="1" width="4" x="247.60000000000016" y="52.1"><title>2024-11-10</title></rect><rect fill="#EBEDF0" height="4" rx="1" ry="1" width="4" x="253.00000000000017" y="19.7"><title>2024-11-11</title></rect><rect fill="#EBEDF0" height="4" rx="1" ry="1" width="4" x="253.00000000000017" y="25.1"><title>2024-11-12</title></rect><rect fill="#EBEDF0" height="4" rx="1" ry="1" width="4" x="253.00000000000017" y="30.5"><title>2024-11-13</title></rect><rect fill="#EBEDF0" height="4" rx="1" ry="1" width="4" x="253.00000000000017" y="35.9"><title>2024-11-14</title></rect><rect fill="#EBEDF0" height="4" rx="1" ry="1" width="4" x="253.00000000000017" y="41.300000000000004"><title>2024-11-15</title></rect><rect fill="#EBEDF0" height="4" rx="1" ry="1" width="4" x="253.00000000000017" y="46.699999999999996"><title>2024-11-16</title></rect><rect fill="#EBEDF0" height="4" rx="1" ry="1" width="4" x="253.00000000000017" y="52.1"><title>2024-11-17</title></rect><rect fill="#EBEDF0" height="4" rx="1" ry="1" width="4" x="258.40000000000015" y="19.7"><title>2024-11-18</title></rect><rect fill="#EBEDF0" height="4" rx="1" ry="1" width="4" x="258.40000000000015" y="25.1"><title>2024-11-19</title></rect><rect fill="#EBEDF0" height="4" rx="1" ry="1" width="4" x="258.40000000000015" y="30.5"><title>2024-11-20</title></rect><rect fill="#EBEDF0" height="4" rx="1" ry="1" width="4" x="258.40000000000015" y="35.9"><title>2024-11-21</title></rect><rect fill="#EBEDF0" height="4" rx="1" ry="1" width="4" x="258.40000000000015" y="41.300000000000004"><title>2024-11-22</title></rect><rect fill="#EBEDF0" height="4" rx="1" ry="1" width="4" x="258.40000000000015" y="46.699999999999996"><title>2024-11-23</title></rect><rect fill="#EBEDF0" height="4" rx="1" ry="1" width="4" x="258.40000000000015" y="52.1"><title>2024-11-24</title></rect><rect fill="#EBEDF0" height="4" rx="1" ry="1" width="4" x="263.8000000000001" y="19.7"><title>2024-11-25</title></rect><rect fill="#EBEDF0" height="4" rx="1" ry="1" width="4" x="263.8000000000001" y="25.1"><title>2024-11-26</title></rect><rect fill="#EBEDF0" height="4" rx="1" ry="1" width="4" x="263.8000000000001" y="30.5"><title>2024-11-27</title></rect><rect fill="#EBEDF0" height="4" rx="1" ry="1" width="4" x="263.8000000000001" y="35.9"><title>2024-11-28</title></rect><rect fill="#EBEDF0" height="4" rx="1" ry="1" width="4" x="263.8000000000001" y="41.300000000000004"><title>2024-11-29</title></rect><rect fill="#EBEDF0" height="4" rx="1" ry="1" width="4" x="263.8000000000001" y="46.699999999999996"><title>2024-11-30</title></rect><rect fill="#EBEDF0" height="4" rx="1" ry="1" width="4" x="263.8000000000001" y="52.1"><title>2024-12-01</title></rect><text fill="#000000" style="font-size:2.5px; font-family:Arial" x="269.2000000000001" y="18.3">Dec</text><rect fill="#EBEDF0" height="4" rx="1" ry="1" width="4" x="269.2000000000001" y="19.7"><title>2024-12-02</title></rect><rect fill="#EBEDF0" height="4" rx="1" ry="1" width="4" x="269.2000000000001" y="25.1"><title>2024-12-03</title></rect><rect fill="#EBEDF0" height="4" rx="1" ry="1" width="4" x="269.2000000000001" y="30.5"><title>2024-12-04</title></rect><rect fill="#EBEDF0" height="4" rx="1" ry="1" width="4" x="269.2000000000001" y="35.9"><title>2024-12-05</title></rect><rect fill="#EBEDF0" height="4" rx="1" ry="1" width="4" x="269.2000000000001" y="41.300000000000004"><title>2024-12-06</title></rect><rect fill="#EBEDF0" height="4" rx="1" ry="1" width="4" x="269.2000000000001" y="46.699999999999996"><title>2024-12-07</title></rect><rect fill="#EBEDF0" height="4" rx="1" ry="1" width="4" x="269.2000000000001" y="52.1"><title>2024-12-08</title></rect><rect fill="#EBEDF0" height="4" rx="1" ry="1" width="4" x="274.6000000000001" y="19.7"><title>2024-12-09</title></rect><rect fill="#EBEDF0" height="4" rx="1" ry="1" width="4" x="274.6000000000001" y="25.1"><title>2024-12-10</title></rect><rect fill="#EBEDF0" height="4" rx="1" ry="1" width="4" x="274.6000000000001" y="30.5"><title>2024-12-11</title></rect><rect fill="#EBEDF0" height="4" rx="1" ry="1" width="4" x="274.6000000000001" y="35.9"><title>2024-12-12</title></rect><rect fill="#EBEDF0" height="4" rx="1" ry="1" width="4" x="274.6000000000001" y="41.300000000000004"><title>2024-12-13</title></rect><rect fill="#EBEDF0" height="4" rx="1" ry="1" width="4" x="274.6000000000001" y="46.699999999999996"><title>2024-12-14</title></rect><rect fill="#EBEDF0" height="4" rx="1" ry="1" width="4" x="274.6000000000001" y="52.1"><title>2024-12-15</title></rect><rect fill="#EBEDF0" height="4" rx="1" ry="1" width="4" x="280.00000000000006" y="19.7"><title>2024-12-16</title></rect><rect fill="#EBEDF0" height="4" rx="1" ry="1" width="4" x="280.00000000000006" y="25.1"><title>2024-12-17</title></rect><rect fill="#EBEDF0" height="4" rx="1" ry="1" width="4" x="280.00000000000006" y="30.5"><title>2024-12-18</title></rect><rect fill="#EBEDF0" height="4" rx="1" ry="1" width="4" x="280.00000000000006" y="35.9"><title>2024-12-19</title></rect><rect fill="#EBEDF0" height="4" rx="1" ry="1" width="4" x="280.00000000000006" y="41.300000000000004"><title>2024-12-20</title></rect><rect fill="#EBEDF0" height="4" rx="1" ry="1" width="4" x="280.00000000000006" y="46.699999999999996"><title>2024-12-21</title></rect><rect fill="#EBEDF0" height="4" rx="1" ry="1" width="4" x="280.00000000000006" y="52.1"><title>2024-12-22</title></rect><rect fill="#EBEDF0" height="4" rx="1" ry="1" width="4" x="285.40000000000003" y="19.7"><title>2024-12-23</title></rect><rect fill="#EBEDF0" height="4" rx="1" ry="1" width="4" x="285.40000000000003" y="25.1"><title>2024-12-24</title></rect><rect fill="#EBEDF0" height="4" rx="1" ry="1" width="4" x="285.40000000000003" y="30.5"><title>2024-12-25</title></rect><rect fill="#EBEDF0" height="4" rx="1" ry="1" width="4" x="285.40000000000003" y="35.9"><title>2024-12-26</title></rect><rect fill="#EBEDF0" height="4" rx="1" ry="1" width="4" x="285.40000000000003" y="41.300000000000004"><title>2024-12-27</title></rect><rect fill="#EBEDF0" height="4" rx="1" ry="1" width="4" x="285.40000000000003" y="46.699999999999996"><title>2024-12-28</title></rect><rect fill="#EBEDF0" height="4" rx="1" ry="1" width="4" x="285.40000000000003" y="52.1"><title>2024-12-29</title></rect><rect fill="#EBEDF0" height="4" rx="1" ry="1" width="4" x="290.8" y="19.7"><title>2024-12-30</title></rect><rect fill="#EBEDF0" height="4" rx="1" ry="1" width="4" x="290.8" y="25.1"><title>2024-12-31</title></rect></svg>